<svg xmlns="http://www.w3.org/2000/svg" viewBox="0 0 47 49.19"><defs><style>.cls-1{fill:none;stroke:#6e6e6e;stroke-miterlimit:10;stroke-width:2px;}</style></defs><g id="Capa_2" data-name="Capa 2"><g id="Capa_1-2" data-name="Capa 1"><path class="cls-1" d="M39.67,48.19c-5.1,0-5.64-6.11-5.67-6.46V2.92C34,1.38,32.07,1,32.07,1H2.79C1.38,1,1,2.78,1,2.78V42.21C1,46.39,6,47.82,6.64,48a.34.34,0,0,0,.14,0H39.45C45.59,48,46,44.2,46,43.93V16.57a.58.58,0,0,0-.57-.57H34"/><line class="cls-1" x1="23" y1="12" x2="29" y2="12"/><line class="cls-1" x1="23" y1="23" x2="29" y2="23"/><line class="cls-1" x1="12" y1="33" x2="29" y2="33"/><rect class="cls-1" x="9" y="11" width="9" height="12" rx="0.28"/></g></g></svg>