<svg xmlns="http://www.w3.org/2000/svg" viewBox="0 0 50.94 51.81"><defs><style>.cls-1{fill:none;stroke:#6e6e6e;stroke-miterlimit:10;stroke-width:2px;}</style></defs><g id="Capa_2" data-name="Capa 2"><g id="Capa_1-2" data-name="Capa 1"><path class="cls-1" d="M3.91,6.25l2-2s3.05-2.2,5.25,0l7,7s2.83,2.75,0,5.58-3.9,3.78-2.3,7.71,7.31,8.42,8.72,9.17,6.65,4.59,9.93,0c0,0,3-3.89,6.85,0L46.62,39s4.1,3.08,0,7.18l-2.75,2.74a14.33,14.33,0,0,1-14.18,0c-7.59-4.24-22-15.21-27.93-29C1.76,19.94-1,11.12,3.91,6.25Z"/><path class="cls-1" d="M25.29,8.5s16.87.28,16.87,16.59"/><path class="cls-1" d="M25.29,1S49.94,2,49.94,25.09"/></g></g></svg>